<svg xmlns="http://www.w3.org/2000/svg" version="1.1" xmlns:xlink="http://www.w3.org/1999/xlink" xmlns:svgjs="http://svgjs.dev/svgjs" width="1000" height="1000" viewBox="0 0 1000 1000"><rect width="1000" height="1000" fill="#ffffff"></rect><g transform="matrix(0.7,0,0,0.7,150.0000000000001,106.25)"><svg viewBox="0 0 320 360" data-background-color="#ffffff" preserveAspectRatio="xMidYMid meet" height="1125" width="1000" xmlns="http://www.w3.org/2000/svg" xmlns:xlink="http://www.w3.org/1999/xlink"><g id="tight-bounds" transform="matrix(1,0,0,1,0,0)"><svg viewBox="0 0 320 360" height="360" width="320"><g><svg></svg></g><g><svg viewBox="0 0 320 360" height="360" width="320"><g><path xmlns="http://www.w3.org/2000/svg" d="M20.961 227.22l3.726 4.658-1.863-6.056c-0.466-2.795-3.726 0.466-1.863 1.398M25.153 224.425c1.397 2.329 2.795 4.658 2.795 6.987 0 3.261 2.795 4.658 5.123 5.589-3.261-3.726-5.124-13.974-7.918-12.576M204.017 26.929c7.918 0 15.371-0.932 23.756 0.931 20.495 5.124 37.729 15.371 49.374 29.811l32.606 52.169c1.397 13.042 4.192 27.482 3.726 43.319 3.261 0 2.795-4.658 6.521-5.59-3.726 9.316-5.59 20.961-6.521 34.469-2.329-7.453 0-18.632 0.466-24.687-3.261 5.124-5.124 1.397-5.124-0.932 0.466-3.726-1.397-3.261-2.795-4.658-5.124-4.658-8.384-9.782-12.11-17.7 2.329-6.055 2.795-14.905-4.658-19.563-2.329-1.397-5.124-3.726-6.521-7.453-1.863-5.124-5.124-11.179-4.193-19.097 0.466-2.329-6.987 5.124-11.179 1.863-18.166-12.576-36.332-27.016-58.224-39.127-11.645 0-20.029-4.192-24.221-9.316-3.726-4.658-0.932-10.713 4.658-11.179 3.261 0 6.987-0.932 9.782 0.932 0.466-1.863 2.329-4.192 4.657-4.192M157.904 16.215l0.932 0.466c4.658 0.932 6.987 7.453 12.11 5.124 0 3.261 0.466 6.521-0.466 8.85-1.397 3.726-5.59 3.726-8.85 3.726-31.208-1.863-49.374 11.179-68.471 22.358-5.124 3.261-10.713 5.59-14.906 9.782-20.029 18.632-41.921 35.866-47.045 70.335l-4.192 38.195c-0.466 4.192-5.124 8.384-4.192 13.508l3.26 22.824c-3.261-3.261-5.124 0.932-4.192 2.795 0.466 1.397 2.329 6.055 5.124 1.863 3.726 6.987 7.453 20.495 12.576 26.55 15.837 18.632 36.332 35.4 53.101 52.169 4.192-0.932 7.453-0.932 8.384-3.727 1.397 2.795-1.397 5.59-3.726 6.056 7.453 4.658 15.837 8.85 27.016 9.781 14.44 0.932 27.948 3.261 40.524 6.522 6.521-1.863 13.042-2.795 20.029-3.261 2.329 0 3.726-3.726 6.521-4.658l0.466-4.658c2.795 4.192 2.329-1.397 0.466-4.192 3.261 2.795 4.192 5.124 5.589 6.987 0-1.397 3.726-6.521 3.727-0.466l0.931-6.055c1.397-0.932 1.863 5.124 3.261 0.931 1.397-4.192 4.192-0.932 6.987-2.329-0.932 1.863-0.466 5.59 2.794 3.261l3.727-3.261c2.329 5.59 6.055 3.261 7.918 2.329 20.495-13.042 40.99-28.413 60.553-43.784l-0.466 6.055 2.329-7.453c2.329 2.329 4.192 0.466 5.124-0.931 2.795-4.658 6.521-9.316 12.577-13.508-7.453 20.029-16.303 35.866-27.482 48.908l-4.658 5.59c0 3.261-0.932 7.453-4.658 7.918-1.863 0.466-5.59-0.932-8.384 1.863-1.397 1.863 3.261 5.59-0.466 2.795-3.261-2.329-6.521 0-10.248 0.932-2.795 0.932 1.863 3.726 2.795 5.589 0.932 1.863 1.863 3.726 1.398 6.056l-5.124-5.59c-6.055 3.261-9.782 9.316-14.906 13.974-2.329 1.863-1.397 5.124-1.397 7.918-3.261 0-6.987-0.932-8.85 0.932-1.397 1.863-0.932 4.658-0.932 7.453-4.658-0.466-5.124-7.453-9.315-6.056-4.192 0.932-8.85 1.397-12.577 3.727 2.795 5.59-4.658 2.329-3.726 3.26-6.987-4.192-13.042-7.453-20.495-4.658-15.837-5.124-35.4-2.795-49.84-0.931 0-2.329 0.466-4.658-0.466-5.124-0.932 2.329-3.726 1.397-3.26 1.397-8.85-6.055-17.7-9.782-27.016-14.905-8.384 0.932-16.303-3.261-18.632-5.59-6.521-6.055-13.974-2.795-20.029-4.192-13.042-3.261-17.7-16.769-19.098-26.084-0.932-4.658-4.658-6.521-6.055-6.056-6.055-19.563-15.371-37.263-22.824-55.429-1.863-4.658-1.397-9.316-1.397-14.44 2.329 0.932 4.658 0.466 4.192-2.794-2.329-15.371-7.918-27.016-13.974-38.195 3.261-15.837 3.726-34.469 11.179-48.443 6.521-12.576 18.632-19.098 27.016-29.811 2.795-3.726 2.795-8.85 5.59-12.11 9.316-9.316 18.632-19.098 28.879-27.482 4.658-3.726 10.247 0 17.234-1.397 2.329-8.384 11.645-15.837 20.495-13.508 3.726 0.932 11.179-8.85 13.508-9.782 3.726-1.397 1.863 3.726 1.863 6.987 8.85-6.987 20.961-10.713 32.14-14.906" fill="#ffa458" fill-rule="nonzero" stroke="none" stroke-width="1" stroke-linecap="butt" stroke-linejoin="miter" stroke-miterlimit="10" stroke-dasharray="" stroke-dashoffset="0" font-family="none" font-weight="none" font-size="none" text-anchor="none" style="mix-blend-mode: normal" data-fill-palette-color="tertiary"></path></g><g transform="matrix(1,0,0,1,64,126.10502317867719)"><svg viewBox="0 0 192 107.78995364264563" height="107.78995364264563" width="192"><g><svg viewBox="0 0 192 107.78995364264563" height="107.78995364264563" width="192"><g><svg viewBox="0 0 192 107.78995364264563" height="107.78995364264563" width="192"><g transform="matrix(1,0,0,1,0,66.61851566962818)"><svg viewBox="0 0 192 41.17143797301744" height="41.17143797301744" width="192"><g id="textblocktransform"><svg viewBox="0 0 192 41.17143797301744" height="41.17143797301744" width="192" id="textblock"><g><svg viewBox="0 0 192 41.17143797301744" height="41.17143797301744" width="192"><g transform="matrix(1,0,0,1,0,0)"><svg width="192" viewBox="0.4399999976158142 -34.689998626708984 222.55999755859375 47.72999954223633" height="41.17143797301744" data-palette-color="#ffa458"><path d="M4.03-30.08L4.03-34.69 8.76-34.69 8.76-30.08 4.03-30.08ZM4.39 3.76L4.39-24.12 8.4-24.12 8.4 3.34Q8.4 4.13 8.37 4.63 8.35 5.13 8.23 6.02 8.11 6.91 7.87 7.57 7.64 8.23 7.17 9.08 6.69 9.94 6.02 10.58 5.35 11.23 4.31 11.89 3.27 12.55 1.95 13.04L1.95 13.04 0.44 10.01Q4.39 8.13 4.39 3.76L4.39 3.76ZM33.13-4.98L33.13-24.12 37.13-24.12 37.13 0 34.32 0 33.47-2.03Q28.85 0.49 24.95 0.49L24.95 0.49Q22.97 0.49 21.51-0.13 20.04-0.76 19.24-1.68 18.43-2.61 17.94-4.04 17.45-5.47 17.32-6.76 17.19-8.06 17.19-9.72L17.19-9.72 17.19-24.12 21.19-24.12 21.19-9.42Q21.19-3.1 26.68-3.1L26.68-3.1Q29.51-3.1 33.13-4.98L33.13-4.98ZM55.93-24.58L55.93-24.58Q56.44-24.58 56.89-24.57 57.34-24.56 57.77-24.51 58.2-24.46 58.5-24.44 58.81-24.41 59.21-24.34 59.61-24.27 59.8-24.23 59.98-24.19 60.41-24.08 60.83-23.97 60.93-23.95 61.03-23.93 61.51-23.78 61.98-23.63 62.06-23.61L62.06-23.61 61.03-20.56Q57.76-21.46 55.27-21.46L55.27-21.46Q53.83-21.46 52.72-21.17 51.61-20.87 51.01-20.46 50.41-20.04 50.03-19.49 49.65-18.95 49.54-18.53 49.43-18.12 49.43-17.72L49.43-17.72Q49.43-16.72 50.47-15.94 51.51-15.16 53.06-14.67 54.61-14.18 56.42-13.51 58.22-12.84 59.77-12.1 61.32-11.35 62.36-10.01 63.4-8.67 63.4-6.91L63.4-6.91Q63.4-5.91 63.14-4.97 62.89-4.03 62.17-3 61.45-1.98 60.31-1.23 59.17-0.49 57.27 0 55.37 0.49 52.9 0.49L52.9 0.49Q49.16 0.49 44.7-1.34L44.7-1.34 45.82-4.37Q48.33-3.44 49.93-3.05 51.53-2.66 53.07-2.66L53.07-2.66Q59.03-2.66 59.03-6.45L59.03-6.45Q59.03-7.28 58.44-7.91 57.86-8.54 56.88-8.95 55.9-9.35 54.67-9.78 53.44-10.21 52.16-10.57 50.87-10.94 49.64-11.54 48.41-12.13 47.43-12.85 46.45-13.57 45.87-14.72 45.28-15.87 45.28-17.31L45.28-17.31Q45.28-18.19 45.56-19.1 45.84-20.02 46.61-21.03 47.38-22.05 48.53-22.81 49.68-23.58 51.59-24.08 53.51-24.58 55.93-24.58ZM82.98-3.15L83.54-0.42Q80 0.49 78.02 0.49 76.04 0.49 74.68-0.15 73.31-0.78 72.6-1.95 71.89-3.13 71.59-4.48 71.28-5.83 71.28-7.59L71.28-7.59 71.28-20.97 68.03-20.97 68.03-24.12 71.28-24.12 71.28-31.03 75.29-31.03 75.29-24.12 82.63-24.12 82.63-20.97 75.29-20.97 75.29-7.64Q75.29-2.64 79.24-2.64L79.24-2.64Q79.95-2.64 82.98-3.15L82.98-3.15ZM92.32 0L92.32-34.69 97.57-34.69 116.47-5.66 116.47-34.69 120.62-34.69 120.62 0 115.37 0 96.47-29.08 96.47 0 92.32 0ZM140.66-24.58L140.66-24.58Q145.67-24.58 148.9-21.39 152.14-18.19 152.14-12.55L152.14-12.55Q152.14-6.57 148.83-3.04 145.52 0.49 140.27 0.49L140.27 0.49Q135.27 0.49 132.09-2.82 128.92-6.13 128.92-11.79L128.92-11.79Q128.92-17.63 132.15-21.11 135.39-24.58 140.66-24.58ZM140.32-21.17L140.32-21.17Q137.32-21.17 135.07-18.85 132.82-16.53 132.82-12.48L132.82-12.48Q132.82-8.45 135.02-5.69 137.22-2.93 140.71-2.93L140.71-2.93Q143.93-2.93 146.08-5.37 148.23-7.81 148.23-11.74L148.23-11.74Q148.23-13.99 147.53-15.82 146.84-17.65 145.7-18.8 144.57-19.95 143.18-20.56 141.78-21.17 140.32-21.17ZM171.96-3.15L172.52-0.42Q168.98 0.49 167 0.49 165.02 0.49 163.66-0.15 162.29-0.78 161.58-1.95 160.87-3.13 160.57-4.48 160.26-5.83 160.26-7.59L160.26-7.59 160.26-20.97 157.02-20.97 157.02-24.12 160.26-24.12 160.26-31.03 164.27-31.03 164.27-24.12 171.62-24.12 171.62-20.97 164.27-20.97 164.27-7.64Q164.27-2.64 168.22-2.64L168.22-2.64Q168.93-2.64 171.96-3.15L171.96-3.15ZM189-24.58L189-24.58Q190.75-24.58 192.16-24.16 193.56-23.73 194.49-23.07 195.42-22.41 196.09-21.35 196.76-20.29 197.11-19.3 197.47-18.31 197.66-16.92 197.86-15.53 197.91-14.5 197.96-13.48 197.96-12.08L197.96-12.08 197.96-10.18 181.38-10.18Q181.38-8.86 181.98-7.56 182.58-6.25 183.66-5.16 184.75-4.08 186.52-3.39 188.29-2.71 190.44-2.71L190.44-2.71Q192.98-2.71 195.93-3.59L195.93-3.59 196.64-0.85Q192.71 0.49 188.92 0.49L188.92 0.49Q186.26 0.49 184.2-0.22 182.14-0.93 180.88-2.06 179.62-3.2 178.82-4.79 178.01-6.37 177.7-7.95 177.4-9.52 177.4-11.28L177.4-11.28Q177.4-13.99 178.06-16.24 178.72-18.48 179.84-20.01 180.96-21.53 182.47-22.58 183.97-23.63 185.61-24.11 187.26-24.58 189-24.58ZM188.14-21.12L188.14-21.12Q185.99-21.12 184.44-19.93 182.89-18.75 182.18-16.99 181.48-15.23 181.48-13.21L181.48-13.21 194.07-13.21Q194.07-21.12 188.14-21.12ZM215.53-24.58L215.53-24.58Q216.04-24.58 216.5-24.57 216.95-24.56 217.38-24.51 217.8-24.46 218.11-24.44 218.41-24.41 218.82-24.34 219.22-24.27 219.4-24.23 219.58-24.19 220.01-24.08 220.44-23.97 220.54-23.95 220.63-23.93 221.11-23.78 221.59-23.63 221.66-23.61L221.66-23.61 220.63-20.56Q217.36-21.46 214.87-21.46L214.87-21.46Q213.43-21.46 212.32-21.17 211.21-20.87 210.61-20.46 210.01-20.04 209.64-19.49 209.26-18.95 209.15-18.53 209.04-18.12 209.04-17.72L209.04-17.72Q209.04-16.72 210.08-15.94 211.11-15.16 212.66-14.67 214.21-14.18 216.02-13.51 217.83-12.84 219.38-12.1 220.93-11.35 221.96-10.01 223-8.67 223-6.91L223-6.91Q223-5.91 222.75-4.97 222.49-4.03 221.77-3 221.05-1.98 219.91-1.23 218.78-0.49 216.87 0 214.97 0.49 212.5 0.49L212.5 0.49Q208.77 0.49 204.3-1.34L204.3-1.34 205.42-4.37Q207.94-3.44 209.54-3.05 211.14-2.66 212.68-2.66L212.68-2.66Q218.63-2.66 218.63-6.45L218.63-6.45Q218.63-7.28 218.05-7.91 217.46-8.54 216.48-8.95 215.51-9.35 214.27-9.78 213.04-10.21 211.76-10.57 210.48-10.94 209.25-11.54 208.01-12.13 207.04-12.85 206.06-13.57 205.47-14.72 204.89-15.87 204.89-17.31L204.89-17.31Q204.89-18.19 205.17-19.1 205.45-20.02 206.22-21.03 206.99-22.05 208.13-22.81 209.28-23.58 211.2-24.08 213.11-24.58 215.53-24.58Z" opacity="1" transform="matrix(1,0,0,1,0,0)" fill="#ffa458" class="wordmark-text-0" data-fill-palette-color="primary" id="text-0"></path></svg></g></svg></g></svg></g></svg></g><g transform="matrix(1,0,0,1,67.55053636064494,0)"><svg viewBox="0 0 56.89892727871011 56.89892727871011" height="56.89892727871011" width="56.89892727871011"><g><svg xmlns="http://www.w3.org/2000/svg" xmlns:xlink="http://www.w3.org/1999/xlink" version="1.1" baseProfile="tiny" x="0" y="0" viewBox="0 0 100 100" xml:space="preserve" height="56.89892727871011" width="56.89892727871011" class="icon-icon-0" data-fill-palette-color="accent" id="icon-0"><path d="M100 52.993v-6.004H53.466v-3.947h45.905c0 0-3.666-37.641-41.991-42.47v34.642h31.661c0 0-5.333-14.49-13.331-17.821v11.992H63.546V8.566c0 0 22.161 3.165 29.327 29.313l-39.407-0.232V0h-6.005v37.611L8.058 37.379c0 0 5.331-23.317 29.826-29.812l-0.333 21.818H25.554V17.061c0 0-9.998 4.996-13.997 18.154H43.05V0.739c0 0-37.326 5.496-42.491 42.303h46.902v3.947H0v6.004h47.461v4.537H0.642c5.166 36.806 42.492 42.302 42.492 42.302V65.357H11.64c3.999 13.158 13.997 18.154 13.997 18.154V71.187h11.998l0.333 21.818C13.473 86.51 8.141 63.192 8.141 63.192l39.32-0.231v36.988h6.005V62.925l39.49-0.231c-7.165 26.147-29.327 29.313-29.327 29.313V71.187h12.165v11.991c7.998-3.33 13.33-17.819 13.33-17.819H57.463V100c38.326-4.829 41.992-42.47 41.992-42.47H53.466v-4.537H100z" fill="#ba3b0a" data-fill-palette-color="accent"></path></svg></g></svg></g><g></g></svg></g></svg></g></svg></g></svg></g><defs></defs></svg><rect width="320" height="360" fill="none" stroke="none" visibility="hidden"></rect></g></svg></g></svg>